<svg width="129" height="16" viewBox="0 0 129 16" fill="none" xmlns="http://www.w3.org/2000/svg">
<path d="M10.4191 15.7846L9.4082 13.0251H2.74338L1.65907 15.7846H0L6.23273 0L12.1027 15.7846H10.4191ZM6.15936 3.95834L3.19993 11.7287H8.92719L6.15936 3.95834Z" fill="#0F303F"/>
<path d="M20.6914 15.7846V0.552734H22.3016V14.4394H27.0424V15.7846H20.6914Z" fill="#0F303F"/>
<path d="M35.9167 15.7846V0.552734H37.5269V14.4394H42.2677V15.7846H35.9167Z" fill="#0F303F"/>
<path d="M51.1458 15.7846V0.552734H58.6992V1.96701H52.7559V5.58804H56.7996V6.95355H52.7559V14.4598H58.9642V15.7806H51.1458V15.7846Z" fill="#0F303F"/>
<path d="M75.4693 15.9996C71.1646 15.9752 67.3125 13.6018 67.3125 8.51367C67.3125 3.73846 71.0668 0.3125 76.044 0.3125C76.309 0.3125 76.574 0.3125 76.8389 0.336884V1.75116C76.5495 1.72677 76.2601 1.70239 75.9747 1.70239C72.0777 1.72677 68.8778 4.14892 68.8778 8.51367C68.8778 12.8296 72.3182 14.6788 75.4203 14.6788C75.6364 14.6788 75.8524 14.6788 76.0685 14.6544V6.28253H72.7707V5.03488H77.5808V15.8045C76.8878 15.9264 76.1663 15.9996 75.4693 15.9996Z" fill="#0F303F"/>
<path d="M94.6932 12.1148L97.1227 15.7846H95.3413L93.3439 12.6919C92.6958 12.9561 91.7541 13.1715 90.7921 13.1715C90.3111 13.1715 89.7812 13.1227 89.3246 13.0292V15.7887H87.7349V0.552734H90.572C95.5533 0.552734 97.5018 3.47882 97.5018 7.07547C97.5059 8.87582 96.8333 10.7697 94.6932 12.1148ZM90.89 1.86947H89.3246V11.6556C89.8546 11.8222 90.2867 11.8954 90.8655 11.8954C91.4688 11.8954 92.1903 11.7978 92.6224 11.5825L91.2528 9.54232L92.4797 8.77422L93.9228 10.9566C95.1253 10.2373 96.0139 8.91646 96.0139 7.26241C96.0139 3.38128 93.4662 1.86947 90.89 1.86947Z" fill="#0F303F"/>
<path d="M106.89 15.7846V0.552734H108.48V15.7846H106.89V15.7846Z" fill="#0F303F"/>
<path d="M127.317 15.7846L126.306 13.0251H119.641L118.557 15.7846H116.897L123.13 0L129 15.7846H127.317ZM123.057 3.95834L120.097 11.7287H125.825L123.057 3.95834Z" fill="#0F303F"/>
</svg>
