<svg width="14" height="14" viewBox="0 0 14 14" fill="none" xmlns="http://www.w3.org/2000/svg">
<g clip-path="url(#clip0_2_2706)">
<path d="M7 1.75C10.2345 1.75 12.9787 3.94343 14 7.00001C12.9787 10.0566 10.2345 12.25 7 12.25C3.76549 12.25 1.02128 10.0566 -2.15558e-06 7.00001C1.02128 3.94343 3.76549 1.75 7 1.75V1.75ZM7 10.5C8.93301 10.5 10.5 8.933 10.5 7.00001C10.5 5.067 8.93301 3.50001 7 3.50001C5.06699 3.50001 3.5 5.067 3.5 7.00001C3.5 8.93297 5.06699 10.5 7 10.5Z" fill="#B7C1C5"/>
<path d="M5.76233 5.76256C5.07892 6.44597 5.07892 7.55401 5.76233 8.23743C6.44574 8.92084 7.55378 8.92084 8.2372 8.23743C8.92061 7.55401 8.92061 6.44597 8.2372 5.76256C7.55378 5.07915 6.44574 5.07915 5.76233 5.76256" fill="#B7C1C5"/>
</g>
<defs>
<clipPath id="clip0_2_2706">
<rect width="14" height="14" fill="white" transform="matrix(-1 0 0 1 14 0)"/>
</clipPath>
</defs>
</svg>
